<?xml version="1.0" encoding="utf-8"?>
<svg width="24" height="24" viewBox="0 0 24 24" xmlns="http://www.w3.org/2000/svg">
  <circle style="stroke: rgb(0, 0, 0); fill: rgb(255, 255, 255);" transform="matrix(0.690576, 0.72326, -0.708781, 0.676751, 12.338725, -4.223322)" cx="11.49976325757576" cy="11.682291743731259" r="12"/>
  <path d="M 12 5.423 C 8.369 5.423 5.423 8.442 5.423 12.166 C 5.423 15.146 7.307 17.674 9.921 18.565 C 10.25 18.628 10.356 18.419 10.356 18.241 L 10.356 16.986 C 8.526 17.394 8.146 16.19 8.146 16.19 C 7.846 15.411 7.415 15.203 7.415 15.203 C 6.818 14.785 7.46 14.794 7.46 14.794 C 8.121 14.841 8.468 15.489 8.468 15.489 C 9.055 16.519 10.007 16.221 10.382 16.049 C 10.441 15.613 10.611 15.316 10.8 15.148 C 9.339 14.976 7.803 14.398 7.803 11.815 C 7.803 11.078 8.061 10.477 8.481 10.005 C 8.413 9.834 8.188 9.148 8.545 8.22 C 8.545 8.22 9.098 8.039 10.354 8.911 C 10.879 8.762 11.441 8.687 12 8.684 C 12.559 8.687 13.122 8.762 13.648 8.911 C 14.904 8.039 15.455 8.22 15.455 8.22 C 15.813 9.149 15.588 9.835 15.52 10.005 C 15.942 10.477 16.197 11.078 16.197 11.815 C 16.197 14.405 14.658 14.975 13.194 15.142 C 13.429 15.351 13.645 15.761 13.645 16.391 L 13.645 18.241 C 13.645 18.42 13.75 18.631 14.084 18.565 C 16.696 17.672 18.578 15.145 18.578 12.166 C 18.578 8.442 15.633 5.423 12 5.423 Z" style="fill: rgb(32, 55, 63);"/>
</svg>